<svg id="Layer_5" enable-background="new 0 0 64 64" height="512" viewBox="0 0 64 64" width="512" xmlns="http://www.w3.org/2000/svg"><g><g><g><path d="m48 31c-6.065 0-11-4.935-11-11s4.935-11 11-11 11 4.935 11 11-4.935 11-11 11z" fill="#f0bc5e"/></g></g><g><path d="m13 18h18v12h-18z" fill="#f0bc5e"/></g><g><path d="m58.945 21.096c-.067.674-.202 1.328-.385 1.961 1.386.263 2.44 1.48 2.44 2.943v32c0 1.654-1.346 3-3 3h-20c-1.654 0-3-1.346-3-3v-32c0-1.463 1.054-2.68 2.441-2.943-.184-.633-.318-1.287-.385-1.961-2.307.443-4.056 2.471-4.056 4.904v7h-22v-24h-5c-1.654 0-3-1.346-3-3s1.346-3 3-3h41v6.051c.33-.03.662-.051 1-.051s.67.021 1 .051v-8.051h-43c-2.757 0-5 2.243-5 5v32c0 2.757 2.243 5 5 5h5v-8h5.568l.085.165c-.363.71-.671 1.457-.919 2.229l-2.734.877v7.459l2.734.876c.249.773.556 1.52.919 2.229l-1.312 2.548 5.274 5.274 2.549-1.312c.71.363 1.457.671 2.229.919l.878 2.736h6.831c.465 2.279 2.484 4 4.899 4h20c2.757 0 5-2.243 5-5v-32c-.001-2.433-1.75-4.461-4.056-4.904zm-49.945 19.904h-3c-1.654 0-3-1.346-3-3v-28.002c.836.628 1.875 1.002 3 1.002h3zm24 9.478c-.96.34-1.965.522-3 .522-4.962 0-9-4.038-9-9 0-2.753 1.228-5.282 3.363-7h8.637zm-6.025 4.166-.517-.146c-.986-.279-1.927-.667-2.796-1.153l-.468-.262-2.195 1.129-3.211-3.211 1.13-2.195-.263-.469c-.486-.867-.874-1.808-1.153-2.795l-.146-.517-2.356-.754v-4.541l2.356-.755.146-.517c.279-.986.667-1.927 1.153-2.796l.262-.468-.099-.194h2.692c-1.615 1.947-2.51 4.393-2.51 7 0 6.065 4.935 11 11 11 1.027 0 2.029-.151 3-.427v4.427h-5.271z"/><path d="m57 33h-18v-6h.521c-.507-.613-.941-1.286-1.307-2h-1.214v10h22v-10h-1.214c-.366.714-.8 1.387-1.307 2h.521z"/><path d="m53 59h6v-14h-6zm2-12h2v10h-2z"/><path d="m45 59h6v-6h-6zm2-4h2v2h-2z"/><path d="m37 59h6v-6h-6zm2-4h2v2h-2z"/><path d="m51 45h-6v6h6zm-2 4h-2v-2h2z"/><path d="m43 45h-6v6h6zm-2 4h-2v-2h2z"/><path d="m51 37h-6v6h6zm-2 4h-2v-2h2z"/><path d="m59 37h-6v6h6zm-2 4h-2v-2h2z"/><path d="m43 37h-6v6h6zm-2 4h-2v-2h2z"/><path d="m49 13h-2v2.145c-1.155.366-2 1.435-2 2.709 0 1.087.604 2.066 1.578 2.553l1.95.974c.291.146.472.439.472.765 0 .471-.383.854-.854.854h-.292c-.471 0-.854-.383-.854-.854v-.146h-2v.146c0 1.274.845 2.343 2 2.709v2.145h2v-2.145c1.155-.366 2-1.435 2-2.709 0-1.087-.604-2.066-1.578-2.553l-1.95-.974c-.291-.146-.472-.439-.472-.765 0-.471.383-.854.854-.854h.292c.471 0 .854.383.854.854v.146h2v-.146c0-1.274-.845-2.343-2-2.709z"/><path d="m33 5h-20v10h20zm-2 8h-16v-6h16z"/><path d="m13 17h18v2h-18z"/><path d="m29 21h2v2h-2z"/><path d="m25 21h2v2h-2z"/><path d="m13 21h10v2h-10z"/><path d="m13 25h18v2h-18z"/><path d="m13 29h18v2h-18z"/></g></g></svg>