<svg height="480pt" viewBox="-12 0 480 480" width="480pt" xmlns="http://www.w3.org/2000/svg"><g fill="#85bc94"><path d="m448 32c0 8.835938-7.164062 16-16 16s-16-7.164062-16-16 7.164062-16 16-16 16 7.164062 16 16zm0 0"/><path d="m392 192c0 8.835938-7.164062 16-16 16s-16-7.164062-16-16 7.164062-16 16-16 16 7.164062 16 16zm0 0"/><path d="m448 120c0 8.835938-7.164062 16-16 16s-16-7.164062-16-16 7.164062-16 16-16 16 7.164062 16 16zm0 0"/><path d="m392 264c0 8.835938-7.164062 16-16 16s-16-7.164062-16-16 7.164062-16 16-16 16 7.164062 16 16zm0 0"/><path d="m448 392c0 8.835938-7.164062 16-16 16s-16-7.164062-16-16 7.164062-16 16-16 16 7.164062 16 16zm0 0"/><path d="m448 312c0 8.835938-7.164062 16-16 16s-16-7.164062-16-16 7.164062-16 16-16 16 7.164062 16 16zm0 0"/><path d="m448 456c0 8.835938-7.164062 16-16 16s-16-7.164062-16-16 7.164062-16 16-16 16 7.164062 16 16zm0 0"/></g><path d="m320 440h-272c-22.089844 0-40-17.910156-40-40v-288c0-22.089844 17.910156-40 40-40h272zm0 0" fill="#985713"/><path d="m320 440h-280c-17.671875 0-32-14.328125-32-32v-256c0-17.671875 14.328125-32 32-32h280" fill="#70400e"/><path d="m320 264h-248l-64-48v-64c0-17.671875 14.328125-32 32-32h280zm0 0" fill="#834b10"/><path d="m144 56h32v32h-32zm0 0" fill="#cbcbcb"/><path d="m144 32v24h32v-16h56v-32h-64c-13.253906 0-24 10.746094-24 24zm0 0" fill="#e4e4e2"/><path d="m320 80h-64c-4.417969 0-8-3.582031-8-8s3.582031-8 8-8h56v-32c0-4.417969 3.582031-8 8-8h96c4.417969 0 8 3.582031 8 8s-3.582031 8-8 8h-88v32c0 4.417969-3.582031 8-8 8zm0 0" fill="#85bc94"/><path d="m432 56c-13.253906 0-24-10.746094-24-24s10.746094-24 24-24 24 10.746094 24 24-10.746094 24-24 24zm0-32c-4.417969 0-8 3.582031-8 8s3.582031 8 8 8 8-3.582031 8-8-3.582031-8-8-8zm0 0" fill="#6b9777"/><path d="m416 128h-160c-4.417969 0-8-3.582031-8-8s3.582031-8 8-8h160c4.417969 0 8 3.582031 8 8s-3.582031 8-8 8zm0 0" fill="#85bc94"/><path d="m64 416h-24c-4.417969 0-8-3.582031-8-8v-24h16v16h16zm0 0" fill="#8b4f11"/><path d="m80 400h16v16h-16zm0 0" fill="#8b4f11"/><path d="m112 400h16v16h-16zm0 0" fill="#8b4f11"/><path d="m32 352h16v16h-16zm0 0" fill="#8b4f11"/><path d="m120 208h16v32h-16zm0 0" fill="#ea9d2d"/><path d="m120 336h16v16h-16zm0 0" fill="#5d350c"/><path d="m360 200h-104c-4.417969 0-8-3.582031-8-8s3.582031-8 8-8h104c4.417969 0 8 3.582031 8 8s-3.582031 8-8 8zm0 0" fill="#85bc94"/><path d="m120 288h16v32h-16zm0 0" fill="#ea9d2d"/><path d="m104 232h48v64h-48zm0 0" fill="#fbb540"/><path d="m104 272h48v24h-48zm0 0" fill="#f3af3e"/><path d="m416 304h-112v-32h56c4.417969 0 8-3.582031 8-8s-3.582031-8-8-8h-104c-4.417969 0-8 3.582031-8 8s3.582031 8 8 8h32v40c0 4.417969 3.582031 8 8 8h120c4.417969 0 8-3.582031 8-8s-3.582031-8-8-8zm0 0" fill="#85bc94"/><path d="m416 448h-88v-80h40v24c0 4.417969 3.582031 8 8 8h40c4.417969 0 8-3.582031 8-8s-3.582031-8-8-8h-32v-24c0-4.417969-3.582031-8-8-8h-56c-4.417969 0-8 3.582031-8 8v24h-56c-4.417969 0-8 3.582031-8 8s3.582031 8 8 8h56v56c0 4.417969 3.582031 8 8 8h96c4.417969 0 8-3.582031 8-8s-3.582031-8-8-8zm0 0" fill="#85bc94"/><path d="m376 216c-13.253906 0-24-10.746094-24-24s10.746094-24 24-24 24 10.746094 24 24-10.746094 24-24 24zm0-32c-4.417969 0-8 3.582031-8 8s3.582031 8 8 8 8-3.582031 8-8-3.582031-8-8-8zm0 0" fill="#6b9777"/><path d="m432 144c-13.253906 0-24-10.746094-24-24s10.746094-24 24-24 24 10.746094 24 24-10.746094 24-24 24zm0-32c-4.417969 0-8 3.582031-8 8s3.582031 8 8 8 8-3.582031 8-8-3.582031-8-8-8zm0 0" fill="#6b9777"/><path d="m376 288c-13.253906 0-24-10.746094-24-24s10.746094-24 24-24 24 10.746094 24 24-10.746094 24-24 24zm0-32c-4.417969 0-8 3.582031-8 8s3.582031 8 8 8 8-3.582031 8-8-3.582031-8-8-8zm0 0" fill="#6b9777"/><path d="m432 416c-13.253906 0-24-10.746094-24-24s10.746094-24 24-24 24 10.746094 24 24-10.746094 24-24 24zm0-32c-4.417969 0-8 3.582031-8 8s3.582031 8 8 8 8-3.582031 8-8-3.582031-8-8-8zm0 0" fill="#6b9777"/><path d="m432 336c-6.015625.007812-11.816406-2.25-16.238281-6.328125-8.503907-7.8125-10.238281-20.570313-4.128907-30.367187 6.105469-9.796876 18.324219-13.859376 29.078126-9.667969 10.757812 4.191406 17.007812 15.449219 14.875 26.796875-2.132813 11.34375-12.039063 19.566406-23.585938 19.566406zm-5.40625-18.105469c3.25 2.992188 8.3125 2.78125 11.300781-.46875 2.992188-3.253906 2.78125-8.316406-.472656-11.304687-3.25-2.992188-8.3125-2.78125-11.300781.472656-2.992188 3.25-2.78125 8.3125.472656 11.300781zm0 0" fill="#6b9777"/><path d="m432 480c-13.253906 0-24-10.746094-24-24s10.746094-24 24-24 24 10.746094 24 24-10.746094 24-24 24zm0-32c-4.417969 0-8 3.582031-8 8s3.582031 8 8 8 8-3.582031 8-8-3.582031-8-8-8zm0 0" fill="#6b9777"/><path d="m40 448h272v8c0 4.417969 3.582031 8 8 8h89.472656c3.894532 11.019531 15.164063 17.632812 26.683594 15.65625 11.523438-1.976562 19.941406-11.96875 19.941406-23.65625s-8.417968-21.679688-19.941406-23.65625c-11.519531-1.976562-22.789062 4.636719-26.683594 15.65625h-81.472656v-80h40v24c0 4.417969 3.582031 8 8 8h33.472656c3.894532 11.019531 15.164063 17.632812 26.683594 15.65625 11.523438-1.976562 19.941406-11.96875 19.941406-23.65625s-8.417968-21.679688-19.941406-23.65625c-11.519531-1.976562-22.789062 4.636719-26.683594 15.65625h-25.472656v-24c0-4.417969-3.582031-8-8-8h-56c-4.417969 0-8 3.582031-8 8v24h-56c-4.417969 0-8 3.582031-8 8s3.582031 8 8 8h56v32h-272c-13.253906 0-24-10.746094-24-24v-176l51.199219 38.398438c1.386719 1.039062 3.070312 1.601562 4.800781 1.601562h24v24c0 4.417969 3.582031 8 8 8h16v16h16v-16h16c4.417969 0 8-3.582031 8-8v-24h128v40c0 4.417969 3.582031 8 8 8h113.496094c1.253906 3.6875 3.40625 7.007812 6.257812 9.664062 7.800782 7.167969 19.382813 8.367188 28.492188 2.953126 9.109375-5.414063 13.589844-16.15625 11.023437-26.4375-2.5625-10.28125-11.5625-17.664063-22.148437-18.167969-10.582032-.5-20.242188 5.996093-23.769532 15.988281h-105.351562v-32h49.472656c3.894532 11.019531 15.164063 17.632812 26.683594 15.65625 11.523438-1.976562 19.941406-11.96875 19.941406-23.65625s-8.417968-21.679688-19.941406-23.65625c-11.519531-1.976562-22.789062 4.636719-26.683594 15.65625h-193.472656v-24c0-4.417969-3.582031-8-8-8h-16v-16h-16v16h-16c-4.417969 0-8 3.582031-8 8v24h-21.335938l-58.664062-44v-60c0-13.253906 10.746094-24 24-24h272v56h-56c-4.417969 0-8 3.582031-8 8s3.582031 8 8 8h97.472656c3.894532 11.019531 15.164063 17.632812 26.683594 15.65625 11.523438-1.976562 19.941406-11.96875 19.941406-23.65625s-8.417968-21.679688-19.941406-23.65625c-11.519531-1.976562-22.789062 4.636719-26.683594 15.65625h-25.472656v-56h81.472656c3.894532 11.019531 15.164063 17.632812 26.683594 15.65625 11.523438-1.976562 19.941406-11.96875 19.941406-23.65625s-8.417968-21.679688-19.941406-23.65625c-11.519531-1.976562-22.789062 4.636719-26.683594 15.65625h-369.472656c-2.488281.019531-4.972656.269531-7.414062.753906-.800782.140625-1.507813.375-2.257813.566406-1.609375.394532-3.195313.886719-4.742187 1.472657-.800782.320312-1.601563.664062-2.402344 1.03125-1.429688.671875-2.820313 1.429687-4.160156 2.265625-.695313.429687-1.398438.839844-2.0625 1.308594-.3125.226562-.671876.394531-.976563.617187v-8.015625c0-17.671875 14.328125-32 32-32h88.015625v8c0 4.417969 3.582031 8 8 8h32c4.417969 0 8-3.582031 8-8v-8h136c4.417969 0 8-3.582031 8-8v-32h81.472656c3.894532 11.019531 15.164063 17.632812 26.683594 15.65625 11.523438-1.976562 19.941406-11.96875 19.941406-23.65625s-8.417968-21.679688-19.941406-23.65625c-11.519531-1.976562-22.789062 4.636719-26.683594 15.65625h-89.472656c-4.417969 0-8 3.582031-8 8v32h-128v-16h48c4.417969 0 8-3.582031 8-8v-32c0-4.417969-3.582031-8-8-8h-64c-17.671875 0-32 14.328125-32 32v32h-88c-26.5.027344-47.9726562 21.5-48 48v296c.0273438 22.082031 17.917969 39.972656 40 40zm392 0c4.417969 0 8 3.582031 8 8s-3.582031 8-8 8-8-3.582031-8-8 3.582031-8 8-8zm0-64c4.417969 0 8 3.582031 8 8s-3.582031 8-8 8-8-3.582031-8-8 3.582031-8 8-8zm-5.886719-77.414062c2.988281-3.253907 8.050781-3.464844 11.300781-.472657 3.253907 2.988281 3.464844 8.050781.472657 11.300781-2.988281 3.253907-8.050781 3.464844-11.300781.472657-3.253907-2.988281-3.464844-8.050781-.472657-11.300781zm-50.113281-50.585938c4.417969 0 8 3.582031 8 8s-3.582031 8-8 8-8-3.582031-8-8 3.582031-8 8-8zm-264-16h32v48h-32zm264-56c4.417969 0 8 3.582031 8 8s-3.582031 8-8 8-8-3.582031-8-8 3.582031-8 8-8zm56-72c4.417969 0 8 3.582031 8 8s-3.582031 8-8 8-8-3.582031-8-8 3.582031-8 8-8zm0-88c4.417969 0 8 3.582031 8 8s-3.582031 8-8 8-8-3.582031-8-8 3.582031-8 8-8zm-280 8c0-8.835938 7.164062-16 16-16h56v16h-48c-4.417969 0-8 3.582031-8 8v40h-16zm0 0"/><path d="m32 408c0 4.417969 3.582031 8 8 8h24v-16h-16v-16h-16zm0 0"/><path d="m80 400h16v16h-16zm0 0"/><path d="m112 400h16v16h-16zm0 0"/><path d="m32 352h16v16h-16zm0 0"/><path d="m120 336h16v16h-16zm0 0"/></svg>