<svg id="_x33_0" enable-background="new 0 0 64 64" height="512" viewBox="0 0 64 64" width="512" xmlns="http://www.w3.org/2000/svg"><g><g><g><path d="m39.6 30.06c-1.17 1.17-1.52 2.92-.88 4.45.12.3.28.57.46.83-1.19-.64-2.3-1.46-3.28-2.44l-.9-.9-2.17-2.17c-.53-.53-1.25-.83-2-.83-.55 0-1.07.16-1.5.43.45-.68 1.01-1.3 1.67-1.83l1.93-1.54c.9-.72 1.7-1.55 2.37-2.46l5.38 5.38z" fill="#ffc729"/></g><g><path d="m35.97 40.06c2.45 1.45 5.19 2.4 8.04 2.77-.01.12-.01.25-.01.37v1.8h-1.52c-1.65 0-3.14.99-3.77 2.52-.21.5-.32 1.03-.32 1.55 0 .53.11 1.05.3 1.53-1.39-.68-2.67-1.58-3.79-2.7l-.55-.55c1.05-1.88 1.65-4.04 1.65-6.35 0-.32-.01-.63-.03-.94z" fill="#ffc729"/></g><g><path d="m37.41 56.29-2.39 2.39-1.09-1.09c-1.16-1.16-2.91-1.51-4.43-.88-.76.31-1.38.84-1.82 1.5-.43.65-.68 1.43-.68 2.25v1.54h-8v-1.54c0-1.64-.99-3.12-2.5-3.75-.5-.21-1.03-.31-1.55-.31-1.06 0-2.1.41-2.88 1.19l-1.09 1.09-5.66-5.66 1.09-1.09c1.16-1.16 1.51-2.91.88-4.43-.31-.76-.84-1.38-1.5-1.82-.65-.43-1.43-.68-2.25-.68h-1.54v-8h1.54c1.64 0 3.12-.99 3.75-2.5.21-.5.31-1.03.31-1.55 0-1.06-.41-2.1-1.19-2.88l-1.09-1.09 5.38-5.38c.67.91 1.47 1.74 2.37 2.46l1.93 1.54c.71.57 1.31 1.24 1.77 1.99-4.03 2.2-6.77 6.49-6.77 11.41 0 7.18 5.82 13 13 13 2.82 0 5.44-.9 7.57-2.43l.28.28c1.9 1.9 4.14 3.41 6.56 4.44z" fill="#ffc729"/></g><g><path d="m31.85 36.85c1.25 1.25 2.63 2.32 4.12 3.2v.01c.02.31.03.62.03.94 0 2.31-.6 4.47-1.65 6.35l-.35-.35-2.17-2.17c-.15-.15-.33-.29-.51-.4.44-1.06.68-2.22.68-3.43 0-3.12-1.59-5.86-3.99-7.48.01-.31.04-.62.09-.93.13.47.38.89.73 1.24l2.17 2.17z" fill="#fcd770"/></g><g><path d="m30.57 51.57c-2.13 1.53-4.75 2.43-7.57 2.43-7.18 0-13-5.82-13-13 0-4.92 2.74-9.21 6.77-11.41.74 1.17 1.17 2.52 1.22 3.93-2.4 1.62-3.99 4.36-3.99 7.48 0 4.97 4.03 9 9 9 1.72 0 3.33-.48 4.69-1.32.05.05.09.1.14.15l2.17 2.17z" fill="#fcd770"/></g><g><path d="m51 12h-4-4c-.34 0-.68-.03-1-.1-1.47-.3-2.7-1.24-3.4-2.52-.38-.71-.6-1.52-.6-2.38 0-1.38.56-2.63 1.46-3.54.91-.9 2.16-1.46 3.54-1.46h6.62c6.84 0 12.38 5.54 12.38 12.38 0 1.78-.38 3.53-1.11 5.12-.72 1.59-1.77 3.02-3.12 4.2l-3.77 3.3v-6l1.41-1.42c.38-.37.59-.88.59-1.41v-.17c0-1.11-.9-2-2-2v-1c0-1.66-1.34-3-3-3z" fill="#b27946"/></g><g><path d="m57.47 53.48c.98-.98 1.84-2.1 2.52-3.32h.01v11.84h-16v-4.07c.56.05 1.13.07 1.7.07h.85c4.27 0 8.13-1.73 10.92-4.52z" fill="#b4dd7f"/></g><g><path d="m45.65 37c-.99 1.74-1.58 3.73-1.64 5.83-2.85-.37-5.59-1.32-8.04-2.77v-.01c-1.49-.88-2.87-1.95-4.12-3.2l-.85-.85 4-4 .9.9c.98.98 2.09 1.8 3.28 2.44 1.97 1.06 4.19 1.64 6.47 1.66z" fill="#b4dd7f"/></g><g><path d="m44 51.97v-6.97-1.8c0-.12 0-.25.01-.37.06-2.1.65-4.09 1.64-5.83.63-1.09 1.42-2.08 2.35-2.94 1.64-1.51 3.69-2.6 6-3.06 2.4.9 4.4 2.51 5.8 4.53 1.4 2.01 2.2 4.45 2.2 7.02 0 2.77-.73 5.37-2.01 7.61-.68 1.22-1.54 2.34-2.52 3.32-2.79 2.79-6.65 4.52-10.92 4.52h-.85c-.57 0-1.14-.02-1.7-.07-2.29-.18-4.51-.74-6.59-1.64-2.42-1.03-4.66-2.54-6.56-4.44l-.28-.28-.57-.57 4-4 .35.35.55.55c1.12 1.12 2.4 2.02 3.79 2.7 1.65.8 3.46 1.27 5.31 1.37z" fill="#b4dd7f"/></g><g><path d="m28 40v1c0 2.76-2.24 5-5 5s-5-2.24-5-5v-1z" fill="#aab2bd"/></g><g><path d="m28 36v4h-10v-4h4z" fill="#aab2bd"/></g><g><path d="m34 47-4 4-2.17-2.17c-.05-.05-.09-.1-.14-.15-.44-.51-.69-1.17-.69-1.85 0-.78.32-1.49.83-2s1.22-.83 2-.83c.53 0 1.05.15 1.49.43.18.11.36.25.51.4z" fill="#f0d0b4"/></g><g><path d="m35 32-4 4-2.17-2.17c-.35-.35-.6-.77-.73-1.24v-.01c.18-1.13.6-2.2 1.23-3.15.43-.27.95-.43 1.5-.43.75 0 1.47.3 2 .83z" fill="#f0d0b4"/></g><g><path d="m54 27v4c-2.31.46-4.36 1.55-6 3.06v-6.46l-1.65.33c-.23.04-.47.07-.71.07-2.01 0-3.64-1.63-3.64-3.64v-.36-4l-2-2c1.28-1.28 2-3.02 2-4.83v-1.27c.32.07.66.1 1 .1h4 4c1.66 0 3 1.34 3 3v1c1.1 0 2 .89 2 2v.17c0 .53-.21 1.04-.59 1.41l-1.41 1.42z" fill="#f0d0b4"/></g><g><path d="m29.33 29.43c-.63.95-1.05 2.02-1.23 3.15v.01c-.05.31-.08.62-.09.93-.01.11-.01.21-.01.32v2.16h-6-4v-2.16c0-.11 0-.21-.01-.32-.05-1.41-.48-2.76-1.22-3.93-.46-.75-1.06-1.42-1.77-1.99l-1.93-1.54c-.9-.72-1.7-1.55-2.37-2.46-.53-.7-.98-1.45-1.36-2.24-.87-1.8-1.34-3.8-1.34-5.85 0-7.46 6.05-13.51 13.51-13.51h2.98c3.73 0 7.11 1.51 9.55 3.96l2.63 3.69 1.33 5.86c0 2.94-.96 5.78-2.7 8.09-.67.91-1.47 1.74-2.37 2.46l-1.93 1.54c-.66.53-1.22 1.15-1.67 1.83z" fill="#ffeaa7"/></g><g><path d="m22 18h-4c-1.1 0-2.1-.45-2.83-1.17-.72-.73-1.17-1.73-1.17-2.83 0-2.21.9-4.21 2.34-5.66.12-.12.24-.23.37-.34 1.41-1.24 3.26-2 5.29-2 3.89 0 7.13 2.78 7.85 6.45.37.2.69.44.98.72.72.73 1.17 1.73 1.17 2.83 0 2.21-1.79 4-4 4h-2-2c-.55 0-1.05-.22-1.41-.59-.37-.36-.59-.86-.59-1.41z" fill="#ecc19c"/></g></g><g><circle cx="46" cy="15.997" r="1"/><path d="m55 30.34v-2.885l3.43-3.001c2.904-2.543 4.57-6.213 4.57-10.072 0-7.379-6.003-13.382-13.382-13.382h-6.619c-3.308 0-5.999 2.691-5.999 5.999 0 .53.076 1.042.206 1.532-2.471-4.484-7.242-7.531-12.714-7.531h-2.984c-8 0-14.508 6.508-14.508 14.508 0 2.888.856 5.639 2.401 7.977l-5.495 5.495 1.796 1.796c.88.88 1.14 2.19.662 3.34-.476 1.145-1.586 1.884-2.825 1.884h-2.539v10h2.535c1.242 0 2.353.741 2.83 1.887.477 1.147.218 2.456-.661 3.335l-1.798 1.798 7.074 7.074 1.796-1.796c.88-.879 2.188-1.137 3.34-.662 1.145.476 1.884 1.586 1.884 2.825v2.539h10v-2.539c0-1.239.739-2.349 1.884-2.825 1.153-.475 2.461-.217 3.34.662l1.796 1.796 2.626-2.625c1.71.672 3.505 1.124 5.355 1.349v4.182h18v-12.593c1.274-2.335 2-5.01 2-7.853-.001-5.277-3.175-10.087-8.001-12.214zm6 12.215c0 7.966-6.481 14.446-14.447 14.446h-.855c-5.343-.001-10.364-2.081-14.141-5.858l-.143-.143 2.586-2.586.193.193c2.832 2.832 6.598 4.393 10.604 4.394h.203c6.617 0 12-5.384 12-12.001h-2c0 5.515-4.486 10.001-10 10.001v-7.803c0-5.338 3.732-9.985 8.915-11.158 4.25 1.724 7.085 5.913 7.085 10.515zm-22.261-24.405 2.261 2.261v3.946c0 2.559 2.081 4.64 4.64 4.64.305 0 .61-.03.91-.09l.45-.09v4.84c-.705.699-1.329 1.475-1.865 2.311-1.849-.093-3.627-.568-5.241-1.393-.093-.147-.188-.293-.255-.455-.479-1.151-.219-2.466.663-3.349l1.792-1.792-5.494-5.494c1.064-1.611 1.787-3.419 2.139-5.335zm-10.204 29.971c-.34-.34-.535-.811-.535-1.293 0-1.008.82-1.828 1.828-1.828.481 0 .953.195 1.293.535l1.465 1.465-2.586 2.586zm3.586-17.586 1.465 1.465-2.586 2.586-1.465-1.465c-.178-.178-.304-.397-.396-.631.158-.809.452-1.577.876-2.275.681-.335 1.563-.222 2.106.32zm2.865 10.064c.004.134.014.266.014.401 0 1.601-.33 3.181-.943 4.643l-1.522-1.522c-.01-.01-.022-.016-.032-.026.325-.996.497-2.032.497-3.095 0-.673-.085-1.331-.215-1.977.701.572 1.437 1.096 2.201 1.576zm-5.986-4.884c1.273 1.444 2 3.312 2 5.285 0 .722-.102 1.429-.289 2.113-.287-.068-.581-.113-.883-.113-.445 0-.865.091-1.263.231.278-.69.435-1.442.435-2.231v-4zm-12 1.285v4c0 3.309 2.691 6 6 6 1.122 0 2.17-.315 3.069-.854-.04.222-.069.449-.069.682 0 .509.099 1.003.288 1.46-1.029.464-2.147.712-3.288.712-4.411 0-8-3.589-8-8 0-1.973.727-3.841 2-5.285zm2 4h8c0 2.206-1.794 4-4 4s-4-1.794-4-4zm17.977.728c1.897.935 3.93 1.582 6.023 1.94v.332h-.519c-2.063 0-3.906 1.23-4.699 3.134-.212.507-.315 1.037-.355 1.569-.643-.445-1.255-.945-1.819-1.51l-.035-.035c.827-1.689 1.305-3.541 1.404-5.43zm2.537 8.146c-.18-.649-.152-1.336.114-1.971.481-1.156 1.601-1.903 2.853-1.903h.519v4.878c-1.213-.167-2.381-.512-3.486-1.004zm3.586-8.217c-3.97-.73-7.683-2.655-10.543-5.515l-.143-.142 2.586-2.586.193.193c2.425 2.426 5.546 3.918 8.912 4.296-.509 1.18-.853 2.441-1.005 3.754zm-7.733-16.576 3.898 3.899-.378.378c-.969.969-1.472 2.255-1.476 3.566-.275-.233-.547-.473-.805-.731l-3.072-3.072c-.46-.461-1.033-.78-1.646-.953l1.666-1.331c.667-.533 1.26-1.13 1.813-1.756zm-8.367 8.764v1.155h-4v-1c0-.552.448-1 1-1h2c.375 0 .73-.077 1.062-.203-.04.345-.062.695-.062 1.048zm0 3.155v2h-8v-2zm-10.044-3.944c-2.48 1.888-3.956 4.805-3.956 7.944 0 5.514 4.486 10 10 10 1.572 0 3.104-.389 4.495-1.091l1.488 1.488c-1.814 1.048-3.858 1.603-5.983 1.603-6.617 0-12-5.383-12-12 0-4.049 2.054-7.777 5.395-9.99.286.646.481 1.332.561 2.046zm37.75-14.179-1.706 1.709v9.632c-1.451.385-2.795 1.003-4 1.809v-3.61l2.196-.439-.393-1.961-4.646.93c-.17.033-.345.051-.519.051-1.233 0-2.264-.855-2.552-2h1.914c2.206 0 4-1.794 4-4h-2c0 1.103-.897 2-2 2h-2v-3.414l-1.632-1.632c1.046-1.362 1.632-3.057 1.632-4.783v-.17h.001l3.978-.001c.007 0 .013.001.02.001h.002v-.001l3.958-.001c.013 0 .026.002.04.002h.002v-.002c.533 0 1.035.208 1.413.585.378.378.586.881.586 1.415v2h1c.552 0 1 .448 1 1v.172c0 .263-.106.52-.294.708zm-11.707-15.877h6.619c6.277 0 11.382 5.105 11.382 11.382 0 3.282-1.417 6.404-3.887 8.565l-2.113 1.849v-3.382l1.121-1.124c.567-.566.879-1.32.879-2.121v-.172c0-1.304-.836-2.416-2-2.829v-.171c0-1.068-.416-2.073-1.172-2.829-.756-.755-1.76-1.171-2.827-1.171-.001 0-.001 0-.002 0h-.02c-1.06-.005-2.057-.419-2.807-1.169-.756-.755-1.172-1.76-1.172-2.828h-2c0 1.469.53 2.855 1.491 3.949-.874-.111-1.686-.488-2.319-1.121-.756-.755-1.172-1.76-1.172-2.828h-2c0 1.469.529 2.853 1.489 3.947-1.962-.254-3.489-1.917-3.489-3.948 0-2.205 1.794-3.999 3.999-3.999zm-1.999 9.649v.52c0 1.534-.622 3.036-1.707 4.121l-.492.492c.118-.747.199-1.503.199-2.274 0-1.808-.347-3.533-.954-5.131.712 1.041 1.745 1.842 2.954 2.272zm-19.492-9.649h2.984c6.897 0 12.508 5.611 12.508 12.508 0 3.82-1.711 7.38-4.693 9.767l-1.93 1.543c-.667.533-1.233 1.155-1.713 1.831-.497-.974-1.498-1.649-2.664-1.649h-4c-.552 0-1-.448-1-1s.448-1 1-1h2c1.654 0 3-1.346 3-3v-1h1c2.757 0 5-2.243 5-5 0-1.751-.909-3.289-2.275-4.182-.991-3.975-4.585-6.818-8.725-6.818-4.963 0-9 4.037-9 9 0 2.757 2.243 5 5 5h3.184c.414 1.161 1.514 2 2.816 2h1v1c0 .552-.448 1-1 1h-2c-1.654 0-3 1.346-3 3s1.346 3 3 3h4c.552 0 1 .448 1 1s-.448 1-1 1h-2c-1.654 0-3 1.346-3 3v1h-2v-1.155c0-2.749-1.23-5.311-3.378-7.028l-1.928-1.542c-2.983-2.387-4.694-5.947-4.694-9.767 0-6.897 5.611-12.508 12.508-12.508zm2.492 14h1v-2h-1c-.495 0-.956.132-1.368.346-.632-1.38-2.017-2.346-3.632-2.346v2c1.103 0 2 .897 2 2h-3c-1.654 0-3-1.346-3-3 0-1.958.81-3.728 2.111-5h1.889c1.103 0 2 .897 2 2h2c0-1.76-1.149-3.241-2.731-3.774.555-.142 1.133-.226 1.731-.226 2.755 0 5.182 1.629 6.314 4.032-.106-.007-.206-.032-.314-.032h-3v2h3c1.654 0 3 1.346 3 3s-1.346 3-3 3h-4c-.552 0-1-.448-1-1s.448-1 1-1zm11.02 40.266-.382-.382c-1.455-1.455-3.624-1.887-5.521-1.094-1.894.787-3.117 2.621-3.117 4.671v.539h-6v-.539c0-2.05-1.223-3.884-3.116-4.671-1.896-.792-4.066-.361-5.521 1.094l-.382.382-4.247-4.246.384-.384c1.453-1.453 1.883-3.619 1.093-5.517-.788-1.894-2.624-3.119-4.676-3.119h-.535v-6h.539c2.05 0 3.884-1.223 4.671-3.116.791-1.899.361-4.066-1.094-5.521l-.382-.383 3.899-3.899c.553.626 1.146 1.223 1.812 1.756l1.928 1.541c.349.279.658.593.943.924-3.921 2.576-6.316 6.959-6.316 11.698 0 7.72 6.28 14 14 14 2.666 0 5.225-.748 7.457-2.158 1.577 1.519 3.339 2.775 5.239 3.747zm23.98 3.734h-14v-2.033c.233.007.463.034.697.034h.855c4.974 0 9.429-2.228 12.447-5.727v7.726z"/></g></g></svg>