<svg id="Layer_5" enable-background="new 0 0 64 64" height="512" viewBox="0 0 64 64" width="512" xmlns="http://www.w3.org/2000/svg"><g><g><g><path d="m2 2h60v8h-60z" fill="#b4dd7f"/></g><g><path d="m62 10v52h-60v-52z" fill="#e6e9ed"/></g><g><path d="m51.67 29c-.43 0-.84-.17-1.14-.47l-2.03-2.03-16.5 16.5-7-7-13 13v9h40v-29.04c-.1.03-.22.04-.33.04z" fill="#ffeaa7"/></g><g><path d="m6 14h26v12h-26z" fill="#fcd770"/></g><g><path d="m55 18.82c0 .12-.01.24-.04.36l-1.7 8.52c-.13.64-.63 1.13-1.26 1.26-.1.03-.22.04-.33.04-.43 0-.84-.17-1.14-.47l-2.03-2.03-.5.5-4 4-4 4-4 4-4 4-4-4-3-3-1 1-4 4-4 4-4 4-3-3 4.94-4.94 3.87-3.87 7.19-7.19 7 7 13.5-13.5-2.03-2.03c-.3-.3-.47-.71-.47-1.14 0-.77.55-1.44 1.3-1.59l8.52-1.7c.12-.03.24-.04.36-.04 1.01 0 1.82.81 1.82 1.82z" fill="#ff826e"/></g></g><g><path d="m53.18 16c-.185 0-.37.019-.553.055l-8.52 1.704c-1.221.244-2.107 1.325-2.107 2.57 0 .7.272 1.357.768 1.853l1.318 1.318-12.086 12.086-7-7-17.414 17.414 3.414 3.414v9.586h42v-29.367c.624-.37 1.091-.99 1.241-1.739l1.704-8.521c.037-.182.055-.368.055-.554 0-1.554-1.265-2.819-2.82-2.819zm-40.18 33.414 2-2v9.586h-2zm34 7.586h-2v-25.586l2-2zm-4 0h-2v-21.586l2-2zm-4 0h-2v-17.586l2-2zm-4 0h-2v-13.586l2-2zm-4 0h-2v-15.586l2 2zm-4 0h-2v-19.586l2 2zm-4 0h-2v-15.586l2-2zm-4 0h-2v-11.586l2-2zm30 0v-28.586l.818.818c.326.327.739.549 1.182.668v27.1zm4.984-38.02-1.704 8.521c-.09.45-.722.642-1.048.317l-2.732-2.732-16.5 16.5-7-7-13 13-1.586-1.586 14.586-14.586 7 7 14.914-14.914-2.732-2.732c-.116-.116-.182-.276-.182-.439 0-.295.21-.552.499-.609l8.52-1.704c.497-.099.981.297.981.803 0 .055-.005.109-.016.161z"/><path d="m1 1v62h62v-62zm60 2v6h-58v-6zm-58 58v-50h58v50z"/><path d="m5 5h2v2h-2z"/><path d="m9 5h2v2h-2z"/><path d="m13 5h2v2h-2z"/><path d="m33 13h-28v14h28zm-2 12h-24v-10h24z"/><path d="m9 17h20v2h-20z"/><path d="m27 21h2v2h-2z"/><path d="m9 21h16v2h-16z"/></g></g></svg>